<svg width="500" height="500" xmlns="http://www.w3.org/2000/svg">

 <title/>
 <g>
  <title>background</title>
  <rect fill="none" id="canvas_background" height="402" width="582" y="-1" x="-1"/>
 </g>
 <g>
  <title>Layer 1</title>
  <path fill="#e9785a" id="svg_1" d="m80,54l0.05,0l-0.05,0z" class="cls-1"/>
  <path fill="#d65f47" id="svg_2" d="m242.19,372.08l-0.68,0.16l0.32,0.24a1.05,1.05 0 0 1 0.36,-0.4z" class="cls-2"/>
  <path fill="#d65f47" id="svg_3" d="m246,381.5l0,35c0,0.07 0,0.15 0,0.22l4,-0.47l0,-41.25a14.25,14.25 0 0 0 -5,1.54a12,12 0 0 1 1,4.96z" class="cls-2"/>
  <path fill="#d65f47" id="svg_4" d="m215.42,420.07a11.86,11.86 0 0 1 -0.42,-3.57l0,-35a11.58,11.58 0 0 1 1.38,-5.57c-7,2.47 -14.43,5.46 -16.38,7.73c-3.2,3.73 2,-9.81 7.78,-15c-5.28,1 -12.86,1.71 -15.5,0.83a14.34,14.34 0 0 0 3.38,-3.13c1.54,-1.74 -1.12,-3.73 -5.56,-5.73c0.45,10 2.62,44.51 11.14,51.33c0,0 2,8 -7.75,8s-17.75,-3.73 -18.5,4.27s-6,13 3.25,15.76c7.09,2.11 21.38,-0.78 28.12,-3l-0.52,-2.99a12.08,12.08 0 0 1 9.58,-13.93z" class="cls-2"/>
  <path fill="#e9785a" id="svg_5" d="m245,376.54a4.56,4.56 0 0 0 -2.54,3.46c-0.38,3.87 -1.87,-5.27 -0.59,-7.52l-0.32,-0.24c-3,0.73 -11,2.92 -11.51,6.42c-0.67,4.67 0.81,-7.33 0.81,-7.33s-7,2 -14.42,4.6a11.58,11.58 0 0 0 -1.43,5.57l0,35a11.86,11.86 0 0 0 0.42,3.57a12.08,12.08 0 0 0 -9.58,14l0.52,2.92l0.22,1.24a12,12 0 0 0 14,9.6l15.3,-2.83a12,12 0 0 0 9.6,-14l-0.78,-4.16c-0.18,-1 1.22,-7.14 1.29,-10.08c0,-0.07 0,-0.15 0,-0.22l0,-35a12,12 0 0 0 -0.99,-5z" class="cls-1"/>
  <path fill="#f6ec70" id="svg_6" d="m249.72,295.46c-62.72,-7.58 -59.72,-45.46 -59.72,-55.46c0,-9.52 1.36,-5.92 5.09,-29.31c-4,-1.88 -10,-5.1 -16.76,-8.85l-7,18.49l-3.83,-8.33s-0.25,5.18 -0.34,8.89c-2,-5.38 -11.76,-10.89 -11.76,-10.89c3.74,1.33 4.59,40 4.59,40l-10,-16.33l3.34,20.33s-2,6 -3.33,3.33s-13,-3 -10,-2s18.67,37.67 14,43.67s-9.33,-6.33 -9.33,-6.33c-0.67,3.33 23.33,40 16.66,42.33c-4.49,1.57 -5.65,1.48 -5.93,1.25c1.25,3.23 19.86,6.19 17.26,10.41s-12.66,3.34 -12.66,3.34c0.92,1.62 20.08,6.11 30.11,10.61c-0.08,-1.73 -0.11,-2.73 -0.11,-2.73l60,8.12l0,-70l-0.28,-0.54z" class="cls-3"/>
  <path fill="#f6ec70" id="svg_7" d="m190.11,360.61c4.45,2 7.1,4 5.56,5.73a14.34,14.34 0 0 1 -3.38,3.13c2.64,0.87 10.22,0.12 15.5,-0.83c-5.76,5.22 -11,18.77 -7.78,15c2,-2.28 9.33,-5.27 16.38,-7.73a11.59,11.59 0 0 1 10.36,-5.91l7.75,0a11.65,11.65 0 0 1 7,2.25l0.68,-0.16a1.05,1.05 0 0 0 -0.36,0.4a10.88,10.88 0 0 1 3.12,4.06a14.25,14.25 0 0 1 5,-1.54l0,-9l-60,-8.12s0.06,0.99 0.17,2.72z" class="cls-3"/>
  <path fill="#f6ec70" id="svg_8" d="m234.5,370l-7.75,0a11.59,11.59 0 0 0 -10.37,5.93c7.4,-2.59 14.42,-4.6 14.42,-4.6s-1.47,12 -0.81,7.33c0.5,-3.5 8.5,-5.69 11.51,-6.42a11.65,11.65 0 0 0 -7,-2.24z" class="cls-3"/>
  <path fill="#f6ec70" id="svg_9" d="m242.42,380a4.56,4.56 0 0 1 2.54,-3.46a10.88,10.88 0 0 0 -3.12,-4.06c-1.29,2.25 0.16,11.39 0.58,7.52z" class="cls-3"/>
  <path fill="#f6ec70" id="svg_10" d="m155.4,336.25a1,1 0 0 1 -0.07,-0.25a0.21,0.21 0 0 0 0.07,0.25z" class="cls-3"/>
  <path fill="#333333" id="svg_11" d="m114.5,80s22,84.5 25.5,90s52.82,27.44 52.82,27.44c-5.35,-8.14 -10.83,-16.89 -8.32,-14.94c1.91,1.49 6.79,2.79 11.78,3.8c0.59,-15.83 -5.06,-62.05 -81.78,-106.3z" class="cls-4"/>
  <path fill="#e9785a" id="svg_12" d="m250,276.83l0,-48.5a34,34 0 0 1 -26.76,-55a35,35 0 0 0 -8.46,3.89c-5.32,-11.77 -26.64,-58.41 -34.78,-64.22c0,0 0,-10.67 -10,-20c0,0 4.67,18.67 0,17c0,0 -13.2,-21.33 -50,-35.67s-10,-34.33 -10,-34.33s-16.67,6 -13.33,23c0,0 -15.59,-8.17 -16.61,-9c1.51,1.82 38.25,53.4 52.61,121.14c0,0 25.91,15.65 45.67,26.68c6.72,3.75 12.72,7 16.76,8.85c-3.74,23.41 -5.1,19.81 -5.1,29.33c0,10 -3,47.88 59.72,55.46l0.28,0l0,-12.63s-4.67,-2.08 -7.17,-5.17s7.17,-0.83 7.17,-0.83zm-110,-106.83c-3.5,-5.5 -25.5,-90 -25.5,-90c76.72,44.25 82.37,90.47 81.78,106.3c-5,-1 -9.87,-2.31 -11.78,-3.8c-2.51,-1.95 3,6.8 8.32,14.94c0,0 -49.32,-21.94 -52.82,-27.44zm83.67,95.33c-26.33,9 -28,-25.33 -28,-25.33c8.4,-4 14.72,-4.19 19.55,-2.49a18,18 0 0 1 6.39,4a32.7,32.7 0 0 1 6.66,9.71c0.66,1.38 1.23,2.68 1.73,3.81a8,8 0 0 1 0.77,4.07c-0.53,4.9 -7.1,6.23 -7.1,6.23z" class="cls-1"/>
  <path fill="#1a1a1a" id="svg_13" d="m230.77,259.07a8,8 0 0 0 -0.77,-4.07c-0.5,-1.13 -1.07,-2.43 -1.73,-3.81a9.51,9.51 0 0 1 -1.11,0.95l3.61,6.93z" class="cls-5"/>
  <path fill="#1a1a1a" id="svg_14" d="m221.54,254a9.46,9.46 0 0 1 -6.32,-16.49c-4.83,-1.7 -11.15,-1.47 -19.55,2.49c0,0 1.67,34.33 28,25.33c0,0 6.58,-1.32 7.11,-6.26l-3.61,-6.94a9.4,9.4 0 0 1 -5.63,1.87z" class="cls-5"/>
  <path fill="#ffffff" id="svg_15" d="m228.27,251.19a32.7,32.7 0 0 0 -6.66,-9.71l5.55,10.66a9.51,9.51 0 0 0 1.11,-0.95z" class="cls-6"/>
  <path fill="#ffffff" id="svg_16" d="m212.08,244.53a9.45,9.45 0 0 0 15.08,7.6l-5.55,-10.66a18,18 0 0 0 -6.39,-4a9.43,9.43 0 0 0 -3.14,7.06z" class="cls-6"/>
  <path fill="#333333" id="svg_17" d="m242.83,277.67c2.5,3.08 7.17,5.17 7.17,5.17l0,-6s-9.67,-2.26 -7.17,0.83z" class="cls-4"/>
  <path fill="#f6ec70" id="svg_18" d="m240,149.92c-1.3,7.83 -6.75,13.91 -10.38,17.2q-1.36,1 -2.6,2.16c-0.48,0.36 -0.76,0.55 -0.76,0.55l0.2,0a34.3,34.3 0 0 0 -3.22,3.56a34,34 0 0 0 26.76,55l0,-128.39s-8,37.92 -10,49.92z" class="cls-3"/>
  <path fill="#d65f47" id="svg_19" d="m257.86,372.08l0.68,0.16l-0.32,0.24a1.05,1.05 0 0 0 -0.36,-0.4z" class="cls-2"/>
  <path fill="#d65f47" id="svg_20" d="m254,381.5l0,35c0,0.07 0,0.15 0,0.22l-4,-0.47l0,-41.25a14.25,14.25 0 0 1 5,1.54a12,12 0 0 0 -1,4.96z" class="cls-2"/>
  <path fill="#d65f47" id="svg_21" d="m284.61,420.07a11.85,11.85 0 0 0 0.39,-3.57l0,-35a11.57,11.57 0 0 0 -1.36,-5.57c7,2.47 14.45,5.46 16.4,7.73c3.2,3.73 -2,-9.81 -7.78,-15c5.28,1 12.86,1.71 15.5,0.83a14.34,14.34 0 0 1 -3.38,-3.13c-1.54,-1.74 1.12,-3.73 5.56,-5.73c-0.45,10 -2.62,44.51 -11.14,51.33c0,0 -2,8 7.75,8s17.75,-3.73 18.5,4.27s6,13 -3.25,15.76c-7.09,2.11 -21.38,-0.78 -28.12,-3l0.52,-2.99a12.09,12.09 0 0 0 -9.59,-13.93z" class="cls-2"/>
  <path fill="#e9785a" id="svg_22" d="m255.07,376.54a4.58,4.58 0 0 1 2.55,3.46c0.38,3.87 1.87,-5.27 0.59,-7.52l0.33,-0.24c3,0.73 11,2.92 11.51,6.42c0.67,4.67 -0.81,-7.33 -0.81,-7.33s7,2 14.4,4.6a11.57,11.57 0 0 1 1.36,5.57l0,35a11.85,11.85 0 0 1 -0.39,3.57a12.09,12.09 0 0 1 9.59,14l-0.52,2.93l-0.22,1.24a12,12 0 0 1 -14,9.6l-15.29,-2.84a12,12 0 0 1 -9.6,-14l0.78,-4.16c0.18,-1 -1.25,-7.14 -1.31,-10.08c0,-0.07 0,-0.15 0,-0.22l0,-35a12.05,12.05 0 0 1 1.03,-5z" class="cls-1"/>
  <path fill="#f6ec70" id="svg_23" d="m250.31,295.46c62.69,-7.58 59.69,-45.46 59.69,-55.46c0,-9.52 -1.36,-5.92 -5.09,-29.31c4,-1.88 10,-5.1 16.76,-8.85l7,18.49l3.83,-8.33s0.25,5.18 0.34,8.89c2,-5.38 11.76,-10.89 11.76,-10.89c-3.74,1.33 -4.59,40 -4.59,40l10,-16.33l-3.29,20.33s2,6 3.33,3.33s13,-3 10,-2s-18.66,37.67 -14,43.67s9.33,-6.33 9.33,-6.33c0.67,3.33 -23.33,40 -16.67,42.33c4.49,1.57 5.65,1.48 5.93,1.25c-1.25,3.23 -19.86,6.19 -17.26,10.41s12.67,3.34 12.67,3.34c-0.92,1.62 -20.08,6.11 -30.11,10.61c0.08,-1.73 0.08,-2.73 0.08,-2.73l-60.02,8.12l0,-70l0.31,-0.54z" class="cls-3"/>
  <path fill="#f6ec70" id="svg_24" d="m309.95,360.61c-4.45,2 -7.1,4 -5.56,5.73a14.34,14.34 0 0 0 3.38,3.13c-2.64,0.87 -10.22,0.12 -15.5,-0.83c5.76,5.22 11,18.77 7.78,15c-2,-2.28 -9.33,-5.27 -16.38,-7.73a11.59,11.59 0 0 0 -10.37,-5.91l-7.75,0a11.65,11.65 0 0 0 -7,2.25l-0.68,-0.16a1.05,1.05 0 0 1 0.36,0.4a11,11 0 0 0 -3.15,4.06a14.32,14.32 0 0 0 -5.08,-1.55l0,-9l60,-8.12s0,1 -0.05,2.73z" class="cls-3"/>
  <path fill="#f6ec70" id="svg_25" d="m265.55,370l7.75,0a11.59,11.59 0 0 1 10.37,5.93c-7.4,-2.59 -14.42,-4.6 -14.42,-4.6s1.47,12 0.81,7.33c-0.5,-3.5 -8.5,-5.69 -11.51,-6.42a11.65,11.65 0 0 1 7,-2.24z" class="cls-3"/>
  <path fill="#f6ec70" id="svg_26" d="m257.63,380a4.56,4.56 0 0 0 -2.54,-3.46a10.88,10.88 0 0 1 3.12,-4.06c1.29,2.25 -0.21,11.39 -0.58,7.52z" class="cls-3"/>
  <path fill="#f6ec70" id="svg_27" d="m344.65,336.25a1,1 0 0 0 0.07,-0.25a0.21,0.21 0 0 1 -0.07,0.25z" class="cls-3"/>
  <path fill="#333333" id="svg_28" d="m385.55,80s-22,84.5 -25.5,90s-52.82,27.44 -52.82,27.44c5.35,-8.14 10.83,-16.89 8.32,-14.94c-1.91,1.49 -6.79,2.79 -11.78,3.8c-0.58,-15.83 5.06,-62.05 81.78,-106.3z" class="cls-4"/>
  <path fill="#e9785a" id="svg_29" d="m257.17,277.67c-2.5,3.08 -7.17,5.17 -7.17,5.17l0,12.66a2.8,2.8 0 0 1 0.31,0c62.69,-7.62 59.69,-45.5 59.69,-55.5c0,-9.52 -1.36,-5.92 -5.09,-29.31c4,-1.88 10,-5.1 16.76,-8.85c19.76,-11 45.67,-26.68 45.67,-26.68c14.41,-67.74 51.15,-119.31 52.66,-121.16c-1,0.81 -16.61,9 -16.61,9c3.33,-17 -13.33,-23 -13.33,-23s26.8,20 -10,34.33s-50,35.67 -50,35.67c-4.67,1.67 0,-17 0,-17c-10,9.33 -10,20 -10,20c-8.14,5.81 -29.46,52.45 -34.78,64.28a35,35 0 0 0 -8.46,-3.89a34,34 0 0 1 -26.82,55l0,48.5s9.67,-2.31 7.17,0.78zm50.06,-80.22c5.35,-8.14 10.83,-16.89 8.32,-14.94c-1.91,1.49 -6.79,2.79 -11.78,3.8c-0.59,-15.82 5.05,-62 81.78,-106.3c0,0 -22,84.5 -25.5,90s-52.82,27.43 -52.82,27.43l0,0.01zm-37.95,61.63a8,8 0 0 1 0.77,-4.07c0.5,-1.13 1.07,-2.43 1.73,-3.81a32.7,32.7 0 0 1 6.66,-9.71a18,18 0 0 1 6.39,-4c4.83,-1.7 11.15,-1.47 19.55,2.49c0,0 -1.67,34.33 -28,25.33c0.01,0.02 -6.57,-1.31 -7.1,-6.24l0,0.01z" class="cls-1"/>
  <path fill="#1a1a1a" id="svg_30" d="m269.28,259.07a8,8 0 0 1 0.77,-4.07c0.5,-1.13 1.07,-2.43 1.73,-3.81a9.51,9.51 0 0 0 1.11,0.95l-3.61,6.93z" class="cls-5"/>
  <path fill="#1a1a1a" id="svg_31" d="m278.51,254a9.46,9.46 0 0 0 6.32,-16.49c4.83,-1.7 11.15,-1.47 19.55,2.49c0,0 -1.67,34.33 -28,25.33c0,0 -6.58,-1.32 -7.11,-6.26l3.61,-6.94a9.4,9.4 0 0 0 5.63,1.87z" class="cls-5"/>
  <path fill="#ffffff" id="svg_32" d="m271.78,251.19a32.7,32.7 0 0 1 6.66,-9.71l-5.55,10.66a9.51,9.51 0 0 1 -1.11,-0.95z" class="cls-6"/>
  <path fill="#ffffff" id="svg_33" d="m288,244.53a9.45,9.45 0 0 1 -15.08,7.6l5.55,-10.66a18,18 0 0 1 6.39,-4a9.43,9.43 0 0 1 3.14,7.06z" class="cls-6"/>
  <path fill="#333333" id="svg_34" d="m257.17,277.67c-2.5,3.08 -7.17,5.17 -7.17,5.17l0,-6s9.67,-2.26 7.17,0.83z" class="cls-4"/>
  <path fill="#f6ec70" id="svg_35" d="m260,149.92c1.3,7.83 6.76,13.91 10.4,17.2c0.9,0.68 1.78,1.4 2.61,2.16c0.48,0.36 0.76,0.55 0.76,0.55l-0.19,0a34.3,34.3 0 0 1 3.22,3.56a34,34 0 0 1 -26.81,55l0,-128.39s8.01,37.92 10.01,49.92z" class="cls-3"/>
  <path opacity="0.1" fill="#1a1a1a" id="svg_37" d="m344.72,336a1,1 0 0 1 -0.07,0.25a0.21,0.21 0 0 0 0.07,-0.25z" class="cls-5"/>
  <path opacity="0.1" fill="#1a1a1a" id="svg_38" d="m420,54c-1,0.81 -16.61,9 -16.61,9c3.33,-17 -13.33,-23 -13.33,-23s26.8,20 -10,34.33s-50,35.67 -50,35.67c-4.67,1.67 0,-17 0,-17c-10,9.33 -10,20 -10,20c-8.14,5.81 -29.46,52.45 -34.78,64.28a35,35 0 0 0 -8.46,-3.89a34,34 0 0 1 -19.9,54.26a34,34 0 0 0 19.9,-54.26a34.3,34.3 0 0 0 -3.22,-3.56l0.19,0s-0.28,-0.19 -0.76,-0.55c-0.83,-0.76 -1.7,-1.49 -2.61,-2.16c-3.63,-3.29 -9.09,-9.38 -10.4,-17.2c-2,-12 -10,-49.92 -10,-49.92l0,195.5a2.8,2.8 0 0 1 0.31,0l-0.33,0.5l0,79a14.32,14.32 0 0 1 5.07,1.54a11,11 0 0 1 3.14,-4.05l0,0a10.88,10.88 0 0 0 -3.12,4.05a4.56,4.56 0 0 1 2.54,3.46a1.5,1.5 0 0 0 0.24,0.94a1.32,1.32 0 0 1 -0.26,-0.94a4.58,4.58 0 0 0 -2.55,-3.46a12.05,12.05 0 0 0 -1.07,5a12,12 0 0 1 1,-5a14.25,14.25 0 0 0 -5,-1.54l0,41.25l4,0.47c0,-0.07 0,-0.15 0,-0.22s0,0.15 0,0.22c0.07,2.94 1.49,9.13 1.31,10.08l-0.73,4.2a12,12 0 0 0 9.6,14l15.32,2.85a12,12 0 0 0 14,-9.6l0.22,-1.24l0.49,-3.01l-0.51,3c6.73,2.25 21,5.14 28.12,3c9.25,-2.75 4,-7.76 3.25,-15.76s-8.76,-4.24 -18.51,-4.24s-7.75,-8 -7.75,-8c8.53,-6.82 10.69,-41.32 11.14,-51.33l0,0c10,-4.49 29.18,-9 30.11,-10.61c0,0 -10,1 -12.67,-3.33s16,-7.18 17.26,-10.41c-0.28,0.23 -1.44,0.32 -5.93,-1.25c-6.67,-2.33 17.33,-39 16.67,-42.33c0,0 -4.67,12.33 -9.33,6.33s11,-42.67 14,-43.67s-8.67,-0.67 -10,2s-3.33,-3.33 -3.33,-3.33l3.33,-20.33l-10,16.33s0.85,-38.67 4.59,-40c0,0 -9.72,5.52 -11.76,10.89c-0.09,-3.72 -0.34,-8.89 -0.34,-8.89l-3.83,8.33l-7,-18.49c19.76,-11 45.67,-26.68 45.67,-26.68c14.37,-67.81 51.11,-119.38 52.62,-121.23zm-149.95,324.67c-0.5,-3.5 -8.5,-5.69 -11.51,-6.42l0,0c3,0.73 11,2.92 11.51,6.42c0.1,0.72 0.15,1 0.17,1.07s-0.06,-0.32 -0.17,-1.07zm30,5c-2,-2.28 -9.35,-5.27 -16.4,-7.73a11.57,11.57 0 0 1 1.35,5.56a11.57,11.57 0 0 0 -1.36,-5.57c-7.39,-2.59 -14.39,-4.6 -14.4,-4.6l0,0s7,2 14.42,4.6c7,2.47 14.43,5.46 16.38,7.73a1.45,1.45 0 0 0 0.81,0.64a1.37,1.37 0 0 1 -0.85,-0.63l0.05,0zm-7.77,-15l0,0a74.19,74.19 0 0 0 11.79,1.22a74.16,74.16 0 0 1 -11.8,-1.26l0.01,0.04z" class="cls-5"/>
 </g>
</svg>